<?xml version="1.0" encoding="UTF-8" standalone="no"?><!-- Generator: Gravit.io --><svg xmlns="http://www.w3.org/2000/svg" xmlns:xlink="http://www.w3.org/1999/xlink" style="isolation:isolate" viewBox="0 0 1422.3 236.3" width="1422.3pt" height="236.3pt"><defs><clipPath id="_clipPath_7fH8MZQmprX0p46UFDafbEJX0oIdGPWZ"><rect width="1422.3" height="236.3"/></clipPath></defs><g clip-path="url(#_clipPath_7fH8MZQmprX0p46UFDafbEJX0oIdGPWZ)"><path d=" M 24.24 78.477 L 24.24 78.477 L 24.24 52.419 L 24.24 52.419 Q 24.24 28.179 38.027 14.09 L 38.027 14.09 L 38.027 14.09 Q 51.813 0 77.568 0 L 77.568 0 L 77.568 0 Q 87.264 0 96.203 1.364 L 96.203 1.364 L 96.203 1.364 Q 105.141 2.727 108.777 3.03 L 108.777 3.03 L 105.444 43.935 L 89.385 43.026 L 89.385 32.118 L 89.385 32.118 Q 89.385 27.876 85.446 16.665 L 85.446 16.665 L 85.446 16.665 Q 81.204 16.059 75.296 16.059 L 75.296 16.059 L 75.296 16.059 Q 69.387 16.059 63.933 18.332 L 63.933 18.332 L 63.933 18.332 Q 58.479 20.604 55.449 24.089 L 55.449 24.089 L 55.449 24.089 Q 52.419 27.573 50.904 34.239 L 50.904 34.239 L 50.904 34.239 Q 48.783 43.632 48.783 61.812 L 48.783 61.812 L 49.389 83.628 L 91.203 83.628 L 89.688 99.99 L 48.783 99.99 L 48.783 182.709 L 48.783 182.709 Q 48.783 198.465 49.692 205.434 L 49.692 205.434 L 50.904 216.645 L 80.901 219.069 L 79.083 234.522 L 62.418 233.916 L 62.418 233.916 Q 43.026 233.31 31.664 233.31 L 31.664 233.31 L 31.664 233.31 Q 20.301 233.31 10.605 233.916 L 10.605 233.916 L 2.727 234.522 L 1.212 219.069 L 21.21 216.039 L 21.21 216.039 Q 21.513 213.312 22.877 205.586 L 22.877 205.586 L 22.877 205.586 Q 24.24 197.859 24.24 191.799 L 24.24 191.799 L 24.24 99.99 L 0.909 99.99 L 0 87.264 L 0 87.264 Q 3.03 86.355 8.484 84.84 L 8.484 84.84 L 8.484 84.84 Q 20.301 81.204 24.24 78.477 Z  M 142.743 128.169 L 126.122 128.169 L 126.122 80.901 Q 147.894 80.901 175.922 80.901 L 175.922 80.901 L 175.922 80.901 Q 203.949 80.901 214.706 96.657 L 214.706 96.657 L 214.706 96.657 Q 225.462 112.413 225.462 145.137 L 225.462 145.137 L 225.462 191.799 L 225.462 191.799 Q 225.462 198.768 228.492 216.039 L 228.492 216.039 L 249.399 217.554 L 247.581 234.522 L 237.582 233.916 L 237.582 233.916 Q 223.644 233.31 208.191 233.31 L 208.191 233.31 L 203.949 209.373 L 203.949 209.373 Q 197.889 220.584 183.497 228.462 L 183.497 228.462 L 183.497 228.462 Q 169.104 236.34 151.53 236.34 L 151.53 236.34 L 151.53 236.34 Q 133.956 236.34 122.897 225.584 L 122.897 225.584 L 122.897 225.584 Q 111.837 214.827 111.837 197.708 L 111.837 197.708 L 111.837 197.708 Q 111.837 180.588 120.624 171.801 L 120.624 171.801 L 120.624 171.801 Q 129.411 163.014 142.743 159.53 L 142.743 159.53 L 142.743 159.53 Q 156.075 156.045 200.919 149.076 L 200.919 149.076 L 200.919 139.077 L 200.919 139.077 Q 200.919 97.263 172.437 97.263 L 172.437 97.263 L 172.437 97.263 Q 155.772 97.263 144.258 103.02 L 144.258 103.02 L 144.258 103.02 L 142.743 116.958 L 142.743 128.169 Z  M 138.501 194.526 L 138.501 194.526 L 138.501 194.526 Q 138.501 216.948 163.044 216.948 L 163.044 216.948 L 163.044 216.948 Q 176.073 216.948 187.284 207.252 L 187.284 207.252 L 187.284 207.252 Q 198.495 197.556 200.919 182.709 L 200.919 182.709 L 200.919 164.529 L 200.919 164.529 Q 199.404 164.832 183.497 167.559 L 183.497 167.559 L 183.497 167.559 Q 167.589 170.286 157.59 172.71 L 157.59 172.71 L 157.59 172.71 Q 138.501 177.558 138.501 194.526 Z  M 406.383 155.591 L 406.383 155.591 L 406.383 155.591 Q 406.383 189.375 387.294 212.858 L 387.294 212.858 L 387.294 212.858 Q 368.205 236.34 336.996 236.34 L 336.996 236.34 L 336.996 236.34 Q 305.787 236.34 277.305 225.432 L 277.305 225.432 L 278.517 211.191 L 278.517 211.191 Q 279.729 201.192 279.729 192.102 L 279.729 192.102 L 279.729 45.45 L 279.729 45.45 Q 279.729 40.905 278.366 33.179 L 278.366 33.179 L 278.366 33.179 Q 277.002 25.452 276.699 21.21 L 276.699 21.21 L 253.671 17.574 L 255.186 1.212 L 255.186 1.212 Q 278.517 4.242 286.547 4.242 L 286.547 4.242 L 286.547 4.242 Q 294.576 4.242 300.03 3.636 L 300.03 3.636 L 304.575 3.03 L 306.393 4.848 L 305.181 24.24 L 305.181 24.24 Q 304.272 34.845 304.272 54.843 L 304.272 54.843 L 304.272 103.626 L 304.272 103.626 Q 309.726 95.142 320.483 88.022 L 320.483 88.022 L 320.483 88.022 Q 331.239 80.901 344.268 80.901 L 344.268 80.901 L 344.268 80.901 Q 375.174 80.901 390.779 101.354 L 390.779 101.354 L 390.779 101.354 Q 406.383 121.806 406.383 155.591 Z  M 304.272 143.319 L 304.272 182.709 L 306.09 215.736 L 306.09 215.736 Q 320.634 219.372 334.875 219.372 L 334.875 219.372 L 334.875 219.372 Q 357.903 219.372 368.508 201.798 L 368.508 201.798 L 368.508 201.798 Q 379.113 184.224 379.113 156.348 L 379.113 156.348 L 379.113 156.348 Q 379.113 99.384 341.844 99.384 L 341.844 99.384 L 341.844 99.384 Q 323.664 99.384 314.12 113.171 L 314.12 113.171 L 314.12 113.171 Q 304.575 126.957 304.575 147.258 L 304.575 147.258 L 304.272 143.319 Z  M 473.982 147.258 L 473.982 147.258 L 473.982 182.709 L 473.982 182.709 Q 473.982 198.768 474.891 205.131 L 474.891 205.131 L 476.103 216.039 L 506.1 218.463 L 504.282 234.522 L 487.617 233.916 L 487.617 233.916 Q 468.225 233.31 456.863 233.31 L 456.863 233.31 L 456.863 233.31 Q 445.5 233.31 435.804 233.916 L 435.804 233.916 L 427.926 234.522 L 426.411 219.069 L 446.409 216.039 L 446.409 216.039 Q 446.712 213.312 448.076 205.586 L 448.076 205.586 L 448.076 205.586 Q 449.439 197.859 449.439 191.799 L 449.439 191.799 L 449.439 125.139 L 449.439 125.139 Q 449.439 123.321 447.924 114.837 L 447.924 114.837 L 447.924 114.837 Q 446.409 106.353 445.197 99.081 L 445.197 99.081 L 423.381 95.445 L 424.896 79.992 L 434.289 80.901 L 434.289 80.901 Q 440.046 81.81 449.591 81.81 L 449.591 81.81 L 449.591 81.81 Q 459.135 81.81 461.256 81.507 L 461.256 81.507 L 464.892 80.901 L 466.71 82.719 L 471.255 109.383 L 471.255 109.383 Q 488.526 80.901 520.038 80.901 L 520.038 80.901 L 520.038 80.901 Q 528.522 80.901 534.582 82.416 L 534.582 82.416 L 540.642 83.931 L 537.612 133.926 L 520.341 133.017 L 520.038 116.958 L 520.038 116.958 Q 520.038 114.534 515.796 101.808 L 515.796 101.808 L 515.796 101.808 Q 494.586 101.808 484.739 113.171 L 484.739 113.171 L 484.739 113.171 Q 474.891 124.533 473.982 147.258 Z  M 564.912 34.845 L 564.912 34.845 L 564.912 34.845 Q 564.912 25.755 569.457 20.453 L 569.457 20.453 L 569.457 20.453 Q 574.002 15.15 582.638 15.15 L 582.638 15.15 L 582.638 15.15 Q 591.273 15.15 595.97 20.301 L 595.97 20.301 L 595.97 20.301 Q 600.666 25.452 600.666 34.694 L 600.666 34.694 L 600.666 34.694 Q 600.666 43.935 596.121 49.086 L 596.121 49.086 L 596.121 49.086 Q 591.576 54.237 582.789 54.237 L 582.789 54.237 L 582.789 54.237 Q 574.002 54.237 569.457 49.086 L 569.457 49.086 L 569.457 49.086 Q 564.912 43.935 564.912 34.845 Z  M 547.338 97.263 L 548.853 80.901 L 548.853 80.901 Q 570.063 83.628 580.365 83.628 L 580.365 83.628 L 580.365 83.628 Q 590.667 83.628 593.394 83.325 L 593.394 83.325 L 598.242 82.719 L 600.06 84.537 L 598.848 103.626 L 598.848 103.626 Q 597.939 114.231 597.939 134.229 L 597.939 134.229 L 597.939 182.709 L 597.939 182.709 Q 597.939 198.768 598.848 205.131 L 598.848 205.131 L 600.06 216.039 L 623.694 217.857 L 621.876 234.522 L 607.332 233.916 L 607.332 233.916 Q 590.364 233.31 580.062 233.31 L 580.062 233.31 L 580.062 233.31 Q 569.76 233.31 558.246 233.916 L 558.246 233.916 L 548.55 234.522 L 547.035 219.675 L 570.366 216.039 L 570.366 216.039 Q 570.669 213.312 572.033 205.586 L 572.033 205.586 L 572.033 205.586 Q 573.396 197.859 573.396 191.799 L 573.396 191.799 L 573.396 125.139 L 573.396 125.139 Q 573.396 120.594 572.033 112.868 L 572.033 112.868 L 572.033 112.868 Q 570.669 105.141 570.366 100.899 L 570.366 100.899 L 547.338 97.263 Z  M 667.356 158.621 L 667.356 158.621 L 667.356 158.621 Q 667.356 183.921 677.355 200.283 L 677.355 200.283 L 677.355 200.283 Q 687.354 216.645 708.716 216.645 L 708.716 216.645 L 708.716 216.645 Q 730.077 216.645 750.984 205.737 L 750.984 205.737 L 759.468 219.978 L 759.468 219.978 Q 753.711 224.826 745.53 228.159 L 745.53 228.159 L 745.53 228.159 Q 729.774 236.34 708.261 236.34 L 708.261 236.34 L 708.261 236.34 Q 674.628 236.34 656.751 215.433 L 656.751 215.433 L 656.751 215.433 Q 638.874 194.526 638.874 158.772 L 638.874 158.772 L 638.874 158.772 Q 638.874 123.018 656.751 101.96 L 656.751 101.96 L 656.751 101.96 Q 674.628 80.901 708.564 80.901 L 708.564 80.901 L 708.564 80.901 L 727.122 80.901 L 756.122 80.901 L 753.105 129.381 L 735.531 128.472 L 735.531 117.564 L 735.531 117.564 Q 735.531 115.14 733.41 107.262 L 733.41 107.262 L 733.41 107.262 Q 722.502 98.172 708.564 98.172 L 708.564 98.172 L 708.564 98.172 Q 687.354 98.172 677.355 115.746 L 677.355 115.746 L 677.355 115.746 Q 667.356 133.32 667.356 158.621 Z  M 811.917 128.169 L 794.343 129.078 L 795.122 80.901 Q 818.28 80.901 846.308 80.901 L 846.308 80.901 L 846.308 80.901 Q 874.335 80.901 885.092 96.657 L 885.092 96.657 L 885.092 96.657 Q 895.849 112.413 895.849 145.137 L 895.849 145.137 L 895.849 191.799 L 895.849 191.799 Q 895.849 198.768 898.878 216.039 L 898.878 216.039 L 919.785 217.554 L 917.967 234.522 L 907.968 233.916 L 907.968 233.916 Q 894.03 233.31 878.577 233.31 L 878.577 233.31 L 874.335 209.373 L 874.335 209.373 Q 868.275 220.584 853.883 228.462 L 853.883 228.462 L 853.883 228.462 Q 839.49 236.34 821.916 236.34 L 821.916 236.34 L 821.916 236.34 Q 804.342 236.34 793.283 225.584 L 793.283 225.584 L 793.283 225.584 Q 782.223 214.827 782.223 197.708 L 782.223 197.708 L 782.223 197.708 Q 782.223 180.588 791.01 171.801 L 791.01 171.801 L 791.01 171.801 Q 799.797 163.014 813.129 159.53 L 813.129 159.53 L 813.129 159.53 Q 826.461 156.045 871.305 149.076 L 871.305 149.076 L 871.305 139.077 L 871.305 139.077 Q 871.305 97.263 842.823 97.263 L 842.823 97.263 L 842.823 97.263 Q 826.158 97.263 814.644 103.02 L 814.644 103.02 L 814.644 103.02 L 811.917 117.261 L 811.917 128.169 Z  M 808.887 194.526 L 808.887 194.526 L 808.887 194.526 Q 808.887 216.948 833.43 216.948 L 833.43 216.948 L 833.43 216.948 Q 846.459 216.948 857.67 207.252 L 857.67 207.252 L 857.67 207.252 Q 868.881 197.556 871.305 182.709 L 871.305 182.709 L 871.305 164.529 L 871.305 164.529 Q 869.79 164.832 853.883 167.559 L 853.883 167.559 L 853.883 167.559 Q 837.975 170.286 827.976 172.71 L 827.976 172.71 L 827.976 172.71 Q 808.887 177.558 808.887 194.526 Z  M 992.232 216.948 L 992.232 216.948 L 992.232 216.948 Q 1003.14 216.948 1016.169 208.161 L 1016.169 208.161 L 1024.653 220.584 L 1024.653 220.584 Q 1004.352 236.34 988.293 236.34 L 988.293 236.34 L 988.293 236.34 Q 967.387 236.34 958.599 224.22 L 958.599 224.22 L 958.599 224.22 Q 949.813 212.1 949.813 186.042 L 949.813 186.042 L 949.813 99.99 L 926.481 99.99 L 925.572 87.264 L 925.572 87.264 Q 928.602 86.355 934.056 84.84 L 934.056 84.84 L 934.056 84.84 Q 945.873 81.204 949.813 78.477 L 949.813 78.477 L 949.813 78.477 Q 950.115 78.174 957.69 63.63 L 957.69 63.63 L 963.75 51.207 L 975.871 52.419 L 975.871 83.628 L 1018.29 83.628 L 1016.775 99.99 L 975.871 99.99 L 975.871 193.314 L 975.871 193.314 Q 975.871 216.948 992.232 216.948 Z  M 1105.282 80.901 L 1105.282 80.901 L 1105.282 80.901 Q 1139.217 80.901 1156.943 101.808 L 1156.943 101.808 L 1156.943 101.808 Q 1174.669 122.715 1174.669 158.469 L 1174.669 158.469 L 1174.669 158.469 Q 1174.669 194.223 1156.64 215.282 L 1156.64 215.282 L 1156.64 215.282 Q 1138.611 236.34 1104.978 236.34 L 1104.978 236.34 L 1104.978 236.34 Q 1071.345 236.34 1053.317 215.282 L 1053.317 215.282 L 1053.317 215.282 Q 1035.288 194.223 1035.288 158.621 L 1035.288 158.621 L 1035.288 158.621 Q 1035.288 123.018 1053.317 101.96 L 1053.317 101.96 L 1053.317 101.96 Q 1071.345 80.901 1105.282 80.901 Z  M 1136.49 202.101 L 1136.49 202.101 L 1136.49 202.101 Q 1146.187 185.133 1146.187 158.772 L 1146.187 158.772 L 1146.187 158.772 Q 1146.187 132.411 1136.49 115.292 L 1136.49 115.292 L 1136.49 115.292 Q 1126.794 98.172 1104.978 98.172 L 1104.978 98.172 L 1104.978 98.172 Q 1083.162 98.172 1073.467 115.292 L 1073.467 115.292 L 1073.467 115.292 Q 1063.771 132.411 1063.771 158.772 L 1063.771 158.772 L 1063.771 158.772 Q 1063.771 185.133 1073.467 202.101 L 1073.467 202.101 L 1073.467 202.101 Q 1083.162 219.069 1104.978 219.069 L 1104.978 219.069 L 1104.978 219.069 Q 1126.794 219.069 1136.49 202.101 Z  M 1242.268 147.258 L 1242.268 147.258 L 1242.268 182.709 L 1242.268 182.709 Q 1242.268 198.768 1243.177 205.131 L 1243.177 205.131 L 1244.389 216.039 L 1274.386 218.463 L 1272.568 234.522 L 1255.903 233.916 L 1255.903 233.916 Q 1236.511 233.31 1225.148 233.31 L 1225.148 233.31 L 1225.148 233.31 Q 1213.786 233.31 1204.09 233.916 L 1204.09 233.916 L 1196.212 234.522 L 1194.697 219.069 L 1214.695 216.039 L 1214.695 216.039 Q 1214.998 213.312 1216.361 205.586 L 1216.361 205.586 L 1216.361 205.586 Q 1217.725 197.859 1217.725 191.799 L 1217.725 191.799 L 1217.725 125.139 L 1217.725 125.139 Q 1217.725 123.321 1216.21 114.837 L 1216.21 114.837 L 1216.21 114.837 Q 1214.695 106.353 1213.483 99.081 L 1213.483 99.081 L 1191.667 95.445 L 1193.182 79.992 L 1202.575 80.901 L 1202.575 80.901 Q 1208.332 81.81 1217.876 81.81 L 1217.876 81.81 L 1217.876 81.81 Q 1227.421 81.81 1229.542 81.507 L 1229.542 81.507 L 1233.178 80.901 L 1234.996 82.719 L 1239.541 109.383 L 1239.541 109.383 Q 1256.812 80.901 1288.324 80.901 L 1288.324 80.901 L 1288.324 80.901 Q 1296.808 80.901 1302.868 82.416 L 1302.868 82.416 L 1308.928 83.931 L 1305.898 133.926 L 1288.627 133.017 L 1288.324 116.958 L 1288.324 116.958 Q 1288.324 114.534 1284.082 101.808 L 1284.082 101.808 L 1284.082 101.808 Q 1262.872 101.808 1253.024 113.171 L 1253.024 113.171 L 1253.024 113.171 Q 1243.177 124.533 1242.268 147.258 Z  M 1368.952 236.34 L 1368.952 236.34 L 1368.952 236.34 Q 1340.773 236.34 1318.957 224.523 L 1318.957 224.523 L 1322.29 183.315 L 1339.864 184.224 L 1339.864 195.738 L 1339.864 195.738 Q 1339.864 199.374 1344.106 213.918 L 1344.106 213.918 L 1344.106 213.918 Q 1352.59 220.887 1369.861 220.887 L 1369.861 220.887 L 1369.861 220.887 Q 1397.434 220.887 1397.434 197.859 L 1397.434 197.859 L 1397.434 197.859 Q 1397.434 189.072 1389.404 182.558 L 1389.404 182.558 L 1389.404 182.558 Q 1381.375 176.043 1370.164 171.044 L 1370.164 171.044 L 1370.164 171.044 Q 1358.953 166.044 1347.59 160.439 L 1347.59 160.439 L 1347.59 160.439 Q 1336.228 154.833 1328.198 144.834 L 1328.198 144.834 L 1328.198 144.834 Q 1320.169 134.835 1320.169 121.2 L 1320.169 121.2 L 1320.169 121.2 Q 1320.169 102.414 1333.955 91.658 L 1333.955 91.658 L 1333.955 91.658 Q 1347.742 80.901 1370.012 80.901 L 1370.012 80.901 L 1370.012 80.901 Q 1392.283 80.901 1414.705 86.052 L 1414.705 86.052 L 1411.069 129.381 L 1393.495 128.472 L 1393.495 117.564 L 1393.495 117.564 Q 1393.495 114.231 1389.253 100.293 L 1389.253 100.293 L 1389.253 100.293 Q 1380.769 96.657 1369.255 96.657 L 1369.255 96.657 L 1369.255 96.657 Q 1357.741 96.657 1351.075 101.96 L 1351.075 101.96 L 1351.075 101.96 Q 1344.409 107.262 1344.409 116.049 L 1344.409 116.049 L 1344.409 116.049 Q 1344.409 124.836 1352.438 131.351 L 1352.438 131.351 L 1352.438 131.351 Q 1360.468 137.865 1371.83 142.865 L 1371.83 142.865 L 1371.83 142.865 Q 1383.193 147.864 1394.707 153.47 L 1394.707 153.47 L 1394.707 153.47 Q 1406.221 159.075 1414.25 168.923 L 1414.25 168.923 L 1414.25 168.923 Q 1422.28 178.77 1422.28 192.102 L 1422.28 192.102 L 1422.28 192.102 Q 1422.28 236.34 1368.952 236.34 Z " fill="rgb(255,255,255)"/></g></svg>